<svg width="28" height="28" viewBox="0 0 28 28" fill="none" xmlns="http://www.w3.org/2000/svg">
<path fill-rule="evenodd" clip-rule="evenodd" d="M21.9333 23.6453C22.4061 24.1181 23.1727 24.1181 23.6455 23.6453C24.1183 23.1725 24.1183 22.4059 23.6455 21.9331L15.7123 13.9999L23.6453 6.06689C24.1181 5.59409 24.1181 4.82751 23.6453 4.3547C23.1725 3.88189 22.4059 3.88189 21.9331 4.3547L14.0001 12.2877L6.06697 4.35461C5.59417 3.8818 4.82759 3.8818 4.35478 4.35461C3.88197 4.82742 3.88197 5.59399 4.35478 6.0668L12.2879 13.9999L4.35461 21.9332C3.8818 22.406 3.8818 23.1726 4.35461 23.6454C4.82742 24.1182 5.59399 24.1182 6.0668 23.6454L14.0001 15.7121L21.9333 23.6453Z" fill="white"/>
</svg>
