<svg width="24" height="20" viewBox="0 0 24 20" fill="none" xmlns="http://www.w3.org/2000/svg">
<path fill-rule="evenodd" clip-rule="evenodd" d="M3.19998 4.10314C3.20275 3.23313 3.91803 2.52871 4.79998 2.52871C5.68363 2.52871 6.39998 3.23587 6.39998 4.10819C6.39998 4.98052 5.68363 5.68768 4.79998 5.68768C3.91804 5.68768 3.20277 4.98327 3.19998 4.11329L3.2 4.10822L3.19998 4.10314ZM1.70078 3.31847C2.05601 1.95597 3.3089 0.949219 4.79998 0.949219C6.29106 0.949219 7.54394 1.95597 7.89917 3.31847H23.2C23.6419 3.31847 24 3.67205 24 4.10822C24 4.54438 23.6419 4.89796 23.2 4.89796H7.89916C7.54391 6.26044 6.29104 7.26717 4.79998 7.26717C3.30891 7.26717 2.05604 6.26044 1.7008 4.89796H0.8C0.358172 4.89796 0 4.54438 0 4.10822C0 3.67205 0.358172 3.31847 0.8 3.31847H1.70078ZM0.8 9.63633C0.358172 9.63633 0 9.98991 0 10.4261C0 10.8622 0.358172 11.2158 0.8 11.2158H8.90078C9.25598 12.5783 10.5089 13.5851 12 13.5851C13.4911 13.5851 14.744 12.5783 15.0992 11.2158H23.2C23.6418 11.2158 24 10.8622 24 10.4261C24 9.98991 23.6418 9.63633 23.2 9.63633H15.0991C14.7439 8.27389 13.491 7.26719 12 7.26719C10.509 7.26719 9.25609 8.27389 8.90083 9.63633H0.8ZM12 12.0057C11.1172 12.0057 10.4014 11.2998 10.4 10.4287L10.4 10.4261L10.4 10.4225C10.402 9.55185 11.1176 8.84668 12 8.84668C12.8823 8.84668 13.5979 9.55177 13.6 10.4223L13.6 10.4261L13.6 10.4287C13.5986 11.2998 12.8828 12.0057 12 12.0057ZM0.8 15.9544C0.358172 15.9544 0 16.308 0 16.7442C0 17.1803 0.358172 17.5339 0.8 17.5339H16.1009C16.4561 18.8963 17.709 19.903 19.2 19.903C20.691 19.903 21.9439 18.8963 22.2991 17.5339H23.2C23.6418 17.5339 24 17.1803 24 16.7442C24 16.308 23.6418 15.9544 23.2 15.9544H22.2992C21.944 14.5919 20.6911 13.585 19.2 13.585C17.7089 13.585 16.456 14.5919 16.1008 15.9544H0.8ZM20.8 16.7415C20.7986 15.8703 20.0828 15.1645 19.2 15.1645C18.3163 15.1645 17.6 15.8717 17.6 16.744C17.6 17.6163 18.3163 18.3235 19.2 18.3235C20.0824 18.3235 20.798 17.6183 20.8 16.7476C20.8 16.7465 20.8 16.7453 20.8 16.7442C20.8 16.7433 20.8 16.7424 20.8 16.7415Z" fill="currentColor"/>
</svg>
