<?xml version="1.0" standalone="no"?>
<!DOCTYPE svg PUBLIC "-//W3C//DTD SVG 20010904//EN"
 "http://www.w3.org/TR/2001/REC-SVG-20010904/DTD/svg10.dtd">
<svg version="1.0" xmlns="http://www.w3.org/2000/svg"
 width="72.000000pt" height="30.000000pt" viewBox="0 0 72.000000 30.000000"
 preserveAspectRatio="xMidYMid meet">

<g transform="translate(0.000000,30.000000) scale(0.100000,-0.100000)"
fill="#000000" stroke="none">
<path d="M355 242 c-11 -15 -19 -30 -17 -34 4 -14 -15 -9 -28 7 -24 28 -107 8
-112 -27 -4 -28 -28 -36 -28 -9 0 40 -83 55 -140 26 -36 -19 -37 -29 -7 -59
12 -12 31 -42 41 -67 11 -24 23 -48 26 -52 10 -12 60 3 60 18 0 8 14 11 43 10
55 -4 87 4 87 21 0 18 3 18 49 -6 41 -20 51 -18 51 12 0 19 15 24 25 8 3 -5
16 -10 29 -10 13 0 38 -7 56 -16 23 -12 38 -14 49 -7 15 10 47 0 61 -19 3 -4
16 -9 29 -10 21 -3 26 5 47 66 13 39 24 75 24 82 0 6 -21 17 -47 23 -27 7 -56
14 -65 17 -13 4 -21 -2 -28 -20 -13 -35 -26 -33 -34 5 -6 31 -6 31 -53 24 -27
-4 -49 -11 -51 -16 -2 -5 -12 -19 -22 -31 -16 -19 -19 -20 -20 -6 0 21 -30 13
-30 -7 0 -9 11 -13 32 -12 38 2 49 -20 15 -29 -39 -9 -62 -1 -65 24 -5 32 15
52 52 53 17 0 25 3 18 6 -10 4 -10 8 -1 19 13 16 5 44 -13 44 -7 0 -22 -13
-33 -28z m45 3 c0 -2 -10 -10 -22 -16 -21 -11 -22 -11 -9 4 13 16 31 23 31 12z
m115 -45 c3 -10 3 -35 0 -54 -4 -19 -2 -43 4 -55 10 -17 9 -20 -4 -15 -8 4
-15 18 -16 33 0 14 -3 20 -6 13 -4 -10 -8 -10 -19 -1 -11 9 -14 8 -14 -5 0 -9
-7 -16 -15 -16 -11 0 -14 8 -11 33 3 17 5 42 5 55 1 24 35 32 44 10 3 -8 6 -6
6 5 1 23 18 22 26 -3z m-374 0 c24 -13 24 -41 0 -71 -14 -17 -16 -30 -11 -50
8 -27 4 -39 -11 -39 -4 0 -20 27 -35 59 -14 33 -32 62 -40 65 -21 8 -17 26 9
36 30 12 65 12 88 0z m119 -7 c0 -14 2 -14 20 2 16 14 23 16 32 7 9 -9 7 -17
-7 -32 -18 -20 -18 -21 1 -35 10 -8 27 -17 37 -20 9 -4 17 -13 17 -21 0 -12
-8 -11 -40 6 -50 25 -50 25 -50 -6 0 -47 -22 -20 -25 31 -1 28 -6 58 -10 68
-5 12 -2 17 9 17 9 0 16 -7 16 -17z m374 -24 c12 -28 14 -29 19 -10 3 12 13
21 22 21 10 0 15 -6 13 -12 -3 -7 -13 -37 -22 -65 -18 -54 -46 -73 -46 -30 0
17 -2 19 -10 7 -15 -24 -24 -3 -11 27 7 19 8 39 2 61 -13 44 15 45 33 1z m-44
-14 c22 -26 -3 -67 -38 -63 -32 4 -42 37 -17 62 21 20 39 20 55 1z m-362 -7
c19 -19 14 -46 -13 -64 -44 -29 -75 18 -38 58 19 21 34 23 51 6z"/>
<path d="M107 150 c6 -24 26 -21 31 3 2 11 -3 17 -16 17 -15 0 -19 -5 -15 -20z"/>
<path d="M540 140 c0 -15 21 -23 32 -12 6 6 2 11 -11 15 -12 3 -21 1 -21 -3z"/>
<path d="M185 140 c-8 -14 3 -30 21 -30 18 0 18 8 0 26 -9 9 -17 10 -21 4z"/>
</g>
</svg>
