<svg width="30" height="16" viewBox="0 0 30 16" fill="none" xmlns="http://www.w3.org/2000/svg">
<path fill-rule="evenodd" clip-rule="evenodd" d="M1.90532 3.23642H28.0958C28.7533 3.23642 29.2863 2.70343 29.2863 2.04595C29.2863 1.38846 28.7533 0.855469 28.0958 0.855469H1.90532C1.24784 0.855469 0.714844 1.38846 0.714844 2.04595C0.714844 2.70343 1.24784 3.23642 1.90532 3.23642ZM1.90532 9.1888H28.0958C28.7533 9.1888 29.2863 8.65581 29.2863 7.99833C29.2863 7.34084 28.7533 6.80785 28.0958 6.80785H1.90532C1.24784 6.80785 0.714844 7.34084 0.714844 7.99833C0.714844 8.65581 1.24784 9.1888 1.90532 9.1888ZM28.0958 15.1412H1.90532C1.24784 15.1412 0.714844 14.6082 0.714844 13.9507C0.714844 13.2932 1.24784 12.7602 1.90532 12.7602H28.0958C28.7533 12.7602 29.2863 13.2932 29.2863 13.9507C29.2863 14.6082 28.7533 15.1412 28.0958 15.1412Z" fill="white"/>
</svg>
